<?xml version="1.0" encoding="UTF-8" standalone="no"?>
<!-- Created with Inkscape (http://www.inkscape.org/) -->

<svg
   xmlns:dc="http://purl.org/dc/elements/1.1/"
   xmlns:cc="http://creativecommons.org/ns#"
   xmlns:rdf="http://www.w3.org/1999/02/22-rdf-syntax-ns#"
   xmlns:svg="http://www.w3.org/2000/svg"
   xmlns="http://www.w3.org/2000/svg"
   xmlns:sodipodi="http://sodipodi.sourceforge.net/DTD/sodipodi-0.dtd"
   xmlns:inkscape="http://www.inkscape.org/namespaces/inkscape"
   width="45"
   height="45"
   viewBox="0 0 11.90625 11.90625"
   version="1.1"
   id="svg8"
   inkscape:version="0.92.3 (2405546, 2018-03-11)"
   sodipodi:docname="arrow-up.svg">
  <defs
     id="defs2" />
  <sodipodi:namedview
     id="base"
     pagecolor="#4b4a4a"
     bordercolor="#666666"
     borderopacity="1.0"
     inkscape:pageopacity="0"
     inkscape:pageshadow="2"
     inkscape:zoom="11.2"
     inkscape:cx="41.874516"
     inkscape:cy="18.037509"
     inkscape:document-units="px"
     inkscape:current-layer="layer1"
     showgrid="false"
     units="px"
     inkscape:pagecheckerboard="false"
     inkscape:showpageshadow="false"
     inkscape:window-width="1920"
     inkscape:window-height="986"
     inkscape:window-x="-11"
     inkscape:window-y="-11"
     inkscape:window-maximized="1" />
  <metadata
     id="metadata5">
    <rdf:RDF>
      <cc:Work
         rdf:about="">
        <dc:format>image/svg+xml</dc:format>
        <dc:type
           rdf:resource="http://purl.org/dc/dcmitype/StillImage" />
        <dc:title></dc:title>
      </cc:Work>
    </rdf:RDF>
  </metadata>
  <g
     inkscape:label="Layer 1"
     inkscape:groupmode="layer"
     id="layer1"
     transform="translate(0,-285.14375)">
    <path
       style="opacity:1;fill:none;stroke:#ffffff;stroke-width:0.79375;stroke-linecap:round;stroke-linejoin:round;stroke-miterlimit:4;stroke-dasharray:none;stroke-opacity:1"
       d="m 9.9951738,295.35672 c -0.08771,-0.0147 -0.1779578,0.01 -0.265895,0 -0.064068,-0.008 -0.1258653,-0.0272 -0.189912,-0.0345 -0.075377,-0.008 -0.1525352,0.008 -0.2279102,0 -0.064068,-0.008 -0.1260223,-0.0262 -0.1899344,-0.0345 -0.025066,-0.003 -0.051134,0.003 -0.075977,0 -0.3445423,-0.0625 0.1983491,-0.0114 -0.3038796,-0.0687 -0.037688,-0.003 -0.076491,0.007 -0.1139562,0 -0.039491,-0.007 -0.07422,-0.0298 -0.1139563,-0.0345 -0.062822,-0.008 -0.1266224,0 -0.1899344,0 -0.1266224,0 -0.2532325,0 -0.3798487,0 -0.063311,0 -0.128516,0.0147 -0.1899345,0 -0.044278,-0.01 -0.075979,-0.046 -0.1139562,-0.0687 -0.075977,-0.0114 -0.1514887,-0.0258 -0.2279102,-0.0345 -0.042207,-0.003 -0.158278,0.008 -0.1899344,0 -0.066139,-0.0147 -0.1243528,-0.0518 -0.1899345,-0.0687 -0.024354,-0.007 -0.051402,0.007 -0.075977,0 -0.027471,-0.007 -0.048508,-0.0281 -0.075977,-0.0345 -0.00602,-10e-4 -0.1459912,0.001 -0.1519335,0 -0.027471,-0.007 -0.048508,-0.0281 -0.075979,-0.0345 -0.024577,-0.007 -0.050645,0 -0.075977,0 -0.025334,-0.0115 -0.049108,-0.0262 -0.075977,-0.0345 -0.032547,-0.01 -0.1184302,0.008 -0.1519335,0 -0.027471,-0.007 -0.049108,-0.0262 -0.075977,-0.0345 -0.012019,-0.003 -0.02667,0.007 -0.037977,0 -0.016025,-0.008 -0.022039,-0.0271 -0.037977,-0.0345 -0.022662,-0.01 -0.051937,0.008 -0.075979,0 -0.137709,-0.0415 -0.027025,-0.0164 -0.1139562,-0.0687 -0.023553,-0.0147 -0.053315,-0.0181 -0.075979,-0.0345 -0.02865,-0.0201 -0.047327,-0.0494 -0.075977,-0.0687 -0.022662,-0.0163 -0.050645,-0.0229 -0.075977,-0.0345 -0.050645,-0.0229 -0.1012901,-0.046 -0.1519335,-0.0687 -0.025334,-0.0114 -0.052403,-0.0201 -0.075977,-0.0345 -0.086932,-0.0525 0.023753,-0.0271 -0.1139563,-0.0687 -0.012019,-0.003 -0.025978,0.003 -0.037979,0 -0.026847,-0.008 -0.050645,-0.0229 -0.075977,-0.0345 -0.025334,-0.0114 -0.051692,-0.0211 -0.075977,-0.0345 -0.077804,0.008 -0.1016907,-0.0729 -0.1519335,-0.10318 -0.023553,-0.0147 -0.050645,-0.0229 -0.075979,-0.0345 -0.025334,-0.0114 -0.049108,-0.0262 -0.075979,-0.0345 -0.012019,-0.003 -0.02667,0.007 -0.037977,0 -0.1158482,-0.0523 0.069477,-0.0271 -0.1139563,-0.0687 -0.024554,-0.007 -0.050645,0 -0.075979,0 -0.012689,0 -0.02667,0.007 -0.037977,0 -0.016025,-0.008 -0.025334,-0.0229 -0.037977,-0.0345 -0.012689,-0.0114 -0.02805,-0.0209 -0.037977,-0.0345 -0.015812,-0.0214 -0.018031,-0.0505 -0.037977,-0.0687 -0.00891,-0.008 -0.025978,0.003 -0.037977,0 -0.026869,-0.008 -0.055943,-0.0163 -0.075979,-0.0345 -0.00891,-0.008 0.00556,-0.0242 0,-0.0345 -0.00801,-0.0147 -0.025334,-0.0229 -0.037977,-0.0345 -0.012689,-0.0114 -0.022039,-0.0271 -0.037979,-0.0345 -0.011348,-0.007 -0.026668,0.007 -0.037977,0 -0.015812,-0.008 -0.1032262,-0.0886 -0.1139563,-0.10318 -0.015812,-0.0214 -0.018031,-0.0505 -0.037979,-0.0687 -0.1861278,-0.0842 -0.031767,0.0115 -0.075977,-0.0687 -0.041985,-0.076 -0.023574,-0.01 -0.075977,-0.0345 -0.011136,-0.007 -0.1491079,-0.12983 -0.1519335,-0.13768 -0.030097,-0.0816 0.044968,-0.0625 -0.037977,-0.13768 -0.020036,-0.0181 -0.055943,-0.0163 -0.075977,-0.0345 -0.00891,-0.008 0.00891,-0.0262 0,-0.0345 -0.00891,-0.008 -0.02903,0.008 -0.037979,0 -0.00891,-0.008 0.00891,-0.0262 0,-0.0345 -0.00891,-0.008 -0.02903,0.008 -0.037977,0 -0.00891,-0.008 0.00401,-0.0236 0,-0.0345 -0.00891,-0.0244 -0.025334,-0.046 -0.037977,-0.0687 -0.012689,-0.0229 -0.022284,-0.0474 -0.037977,-0.0687 -0.057946,-0.0786 -0.030076,0.0216 -0.075977,-0.10318 -0.00801,-0.0217 0.017809,-0.0526 0,-0.0687 -0.00891,-0.008 -0.02903,0.008 -0.037979,0 -0.00891,-0.008 0.00891,-0.0262 0,-0.0345 -0.020036,-0.0181 -0.060262,-0.0114 -0.075977,-0.0345 -0.01403,-0.0181 0.00801,-0.0469 0,-0.0687 -0.00556,-0.0163 -0.029986,-0.0201 -0.037977,-0.0345 -0.015142,-0.0275 0.015142,-0.0756 0,-0.10318 -0.00801,-0.0147 -0.029986,-0.0201 -0.037977,-0.0345 -0.00556,-0.01 0.00556,-0.0242 0,-0.0345 -0.00801,-0.0147 -0.032323,-0.0181 -0.037979,-0.0345 -5.79e-5,-1.5e-4 3.56e-5,-0.10318 0,-0.10318 -0.00891,-0.008 -0.032323,0.01 -0.037977,0 -0.015142,-0.0276 0.015142,-0.0756 0,-0.10318 -0.00801,-0.0147 -0.029986,-0.0201 -0.037979,-0.0345 -0.00556,-0.01 0.00556,-0.0242 0,-0.0345 -0.00801,-0.0147 -0.029986,-0.0201 -0.037977,-0.0345 -0.0069,-0.0114 0,-0.14798 0,-0.17191 0,-0.0114 0.00891,-0.0262 0,-0.0345 -0.020036,-0.0182 -0.060262,-0.0114 -0.075977,-0.0345 -0.01403,-0.0181 0,-0.046 0,-0.0687 0,-0.0345 0,-0.0687 0,-0.10318 0,-0.0114 0.00556,-0.0242 0,-0.0345 -0.00801,-0.0147 -0.029986,-0.0201 -0.037979,-0.0345 -0.015142,-0.0275 0.015142,-0.0755 0,-0.10318 -0.00801,-0.0147 -0.029986,-0.0201 -0.037977,-0.0345 -0.00556,-0.01 0.00401,-0.0235 0,-0.0345 -0.00891,-0.0244 -0.02903,-0.0445 -0.037979,-0.0687 -0.00401,-0.01 0.00556,-0.0242 0,-0.0345 -0.00801,-0.0147 -0.029986,-0.0201 -0.037977,-0.0345 -0.00757,-0.0147 0.00778,-0.0962 0,-0.10318 -0.00891,-0.008 -0.02903,0.008 -0.037979,0 -3.57e-5,-3e-5 5.78e-5,-0.10302 0,-0.10318 -0.00556,-0.0163 -0.029986,-0.0201 -0.037979,-0.0345 -0.011136,-0.0204 0.00868,-0.0795 0,-0.10318 -0.043655,-0.11856 -0.037977,-0.0255 -0.037977,-0.10319 0,-0.0345 0,-0.0687 0,-0.10318 0,-0.0114 0.00891,-0.0262 0,-0.0345 -0.020036,-0.0182 -0.055943,-0.0164 -0.075977,-0.0345 -0.00891,-0.008 0,-0.0229 0,-0.0345 0,-0.0201 0.00579,-0.15616 0,-0.17189 -0.00556,-0.0164 -0.029986,-0.0201 -0.037979,-0.0345 -0.00579,-0.01 0,-0.0876 0,-0.10318 0,-0.0687 0,-0.13768 0,-0.20631 0,-0.22924 0,-0.45849 0,-0.68773 0,-0.0114 0,-0.0229 0,-0.0345 0,-0.0114 0.00556,-0.0242 0,-0.0345 -0.00801,-0.0147 -0.032323,-0.0181 -0.037977,-0.0345 -0.0069,-0.0181 0,-0.1717 0,-0.20631 0,-0.0114 0.00556,-0.0242 0,-0.0345 -0.00801,-0.0147 -0.029986,-0.0201 -0.037979,-0.0345 -0.00602,-0.01 0,-0.14128 0,-0.17191 0,-0.13735 0,-0.2751 0,-0.41264 0,-0.44702 0,-0.89405 0,-1.34106 0,-0.008 -0.00123,-0.10204 0,-0.10318 0.00891,-0.008 0.02903,0.008 0.037979,0 0.018922,-0.0182 -0.018922,-0.086 0,-0.10318 0.050645,-0.0458 0.037977,0.0572 0.037977,-0.0345 0,-0.0229 0,-0.0458 0,-0.0687 0,-0.0115 -0.011348,-0.0293 0,-0.0345 0.022662,-0.01 0.050645,0 0.075977,0"
       id="path827"
       inkscape:connector-curvature="0" />
    <path
       style="opacity:1;fill:none;stroke:#ffffff;stroke-width:0.79375;stroke-linecap:round;stroke-linejoin:round;stroke-miterlimit:4;stroke-dasharray:none;stroke-opacity:1"
       d="m 1.7524318,287.30144 c 0.010236,-0.0181 0.00579,-0.0181 0.028495,-0.0258 0.00289,-9e-4 0.00734,0.002 0.00957,0 0.00222,-0.002 0,-0.007 0,-0.008 0.00312,0 0.00734,0.002 0.00957,0 0.00222,-0.002 -0.00222,-0.007 0,-0.008 0.00222,-0.002 0.00734,0.002 0.00957,0 0.00222,-0.002 -0.00222,-0.007 0,-0.008 0.00468,-0.003 0.023753,0.003 0.028495,0 0.00222,-0.002 -0.00222,-0.007 0,-0.008 0.00222,-0.002 0.00623,0 0.00957,0 0.00623,0 0.01336,0.002 0.018922,0 0.00556,-0.002 -0.00445,-0.0147 0,-0.0182 0.00445,-0.003 0.016254,0.007 0.018922,0 0.00289,-0.007 -0.00289,-0.0114 0,-0.0181 0.00141,-0.002 0.00667,0.001 0.00957,0 0.00401,-0.002 0.00556,-0.007 0.00957,-0.008 0.00602,-0.002 0.032012,0.002 0.037977,0 0.00289,-0.001 -0.00222,-0.007 0,-0.008 0.00222,-0.002 0.00667,10e-4 0.00957,0 0.00801,-0.003 0.010907,-0.0147 0.018922,-0.0182 0.00289,-10e-4 0.00667,0.001 0.00957,0 0.00734,-0.003 0.022039,-0.0237 0.028495,-0.0258 0.00602,-0.002 0.012689,0 0.018922,0 0.00312,0 0.00667,0.001 0.00957,0 0.011348,-0.007 0.017142,-0.0206 0.028495,-0.0258 0.00556,-0.002 0.013359,0.002 0.018922,0 0.039514,-0.0182 -0.010236,5.4e-4 0.00957,-0.0182 0.00491,-0.003 0.012247,-0.007 0.018922,-0.008 0.00289,-9.2e-4 0.00734,0.002 0.00957,0 0.00222,-0.002 -0.00141,-0.007 0,-0.008 0.019812,-0.0358 -6.634e-4,0.01 0.018922,-0.008 0.00491,-0.003 0.00445,-0.0114 0.00957,-0.0181 0.01959,-0.0181 -7.636e-4,0.0272 0.018922,-0.008 0.00646,-0.0115 -0.011577,-0.008 0.00957,-0.0181 0.00289,-0.001 0.00734,0.002 0.00957,0 0.01959,-0.0181 -0.03003,7.3e-4 0.00957,-0.0181 0.013131,-0.007 0.00845,0.01 0.018922,-0.008 0.00141,-0.002 -0.001,-0.007 0,-0.008 0.00222,-0.007 0.00734,-0.0114 0.00957,-0.0181 10e-4,-0.002 -0.00141,-0.007 0,-0.008 0.00196,-0.003 0.024466,-0.0234 0.028495,-0.0258 0.00579,-0.003 0.01403,-0.003 0.018922,-0.008 0.00222,-0.002 -0.00222,-0.007 0,-0.008 0.00222,-0.002 0.00734,0.002 0.00957,0 0.00222,-0.002 -0.00222,-0.007 0,-0.008 0.015812,-0.0147 0.00957,0.0314 0.00957,-0.0181 0.00979,-0.0268 0.00623,0.002 0.018922,-0.008 0.00222,-0.002 -0.00222,-0.007 0,-0.008 0.00222,-0.002 0.00734,0.002 0.00957,0 0.00445,-0.003 -0.00289,-0.0114 0,-0.0181 0.00868,-0.0163 0.00713,-0.003 0.018922,-0.008 0.00667,-0.002 0.013131,-0.007 0.018922,-0.008 0.00378,-0.002 0.00556,-0.007 0.00957,-0.008 0.00289,-0.001 0.00801,0.002 0.00957,0 0.00289,-0.007 -0.00201,-0.0114 0,-0.0182 0.00141,-0.003 0.00757,-0.003 0.00957,-0.008 0.00141,-0.002 -0.00222,-0.007 0,-0.008 0.00222,-0.002 0.00734,0.002 0.00957,0 0.01959,-0.0181 -0.03003,7.5e-4 0.00957,-0.0181 0.00289,-0.001 0.00667,10e-4 0.00957,0 0.00401,-0.002 0.00556,-0.007 0.00957,-0.008 0.00289,-10e-4 0.00667,0.001 0.00957,0 0.00401,-0.002 0.00623,-0.007 0.00957,-0.008 0.00312,-0.002 0.00713,-0.007 0.00957,-0.008 0.00401,-0.007 0.00445,-0.0114 0.00957,-0.0182 0.00222,-0.002 0.00667,0.001 0.00957,0 0.039514,-0.0181 -0.010236,5.4e-4 0.00957,-0.0181 0.012689,-0.0114 0.00957,0.0147 0.00957,-0.008 0.019814,-0.0358 -6.634e-4,0.01 0.018922,-0.008 0.00222,-0.002 -0.00222,-0.007 0,-0.008 0.00579,-0.007 0.024843,-0.008 0.028495,-0.0181 0.00201,-0.007 0,-0.0114 0,-0.0182 0.00312,-0.002 0.00757,-0.003 0.00957,-0.008 0.00141,-0.002 -0.00222,-0.007 0,-0.008 0.00222,-0.002 0.00734,0.002 0.00957,0 0.00222,-0.002 -0.00141,-0.007 0,-0.008 0.00201,-0.003 0.00757,-0.003 0.00957,-0.008 0.01403,-0.0254 -0.022039,0.0115 0.00957,-0.0181 0.00141,-0.002 -0.00222,-0.007 0,-0.008 0.00222,-0.002 0.00801,0.002 0.00957,0 0.00378,-0.007 -0.00378,-0.0182 0,-0.0258 0.00734,-0.0147 0.016919,-0.007 0.028495,-0.0181 0.00222,-0.002 0,-0.007 0,-0.008 0.00312,-0.002 0.00623,-0.007 0.00957,-0.008 0.00312,-0.002 0.00556,-0.007 0.00957,-0.008 0.00289,-0.001 0.00734,0.002 0.00957,0 0.00222,-0.002 -0.00101,-0.007 0,-0.008 0.00222,-0.007 0.00556,-0.0114 0.00957,-0.0181 0.00165,-0.002 0.037044,-0.034 0.037979,-0.0345 0.00602,-0.002 0.013359,0.002 0.018922,0 0.00289,-10e-4 -0.00141,-0.007 0,-0.008 0.00401,-0.008 0.016254,-0.01 0.018922,-0.0182 0.00201,-0.007 -0.00289,-0.0114 0,-0.0181 0.00141,-0.002 0.00734,0.002 0.00957,0 0.00222,-0.002 -0.00222,-0.007 0,-0.008 0.00222,-0.002 0.00734,0.002 0.00957,0 0.00222,-0.002 -0.00141,-0.007 0,-0.008 0.00201,-0.003 0.00757,-0.003 0.00957,-0.008 0.00289,-0.007 -0.00289,-0.0114 0,-0.0181 0.00201,-0.003 0.00757,-0.003 0.00957,-0.008 0.00141,-0.002 -0.001,-0.007 0,-0.008 0.00222,-0.007 0.00734,-0.0114 0.00957,-0.0181 0.00101,-0.002 -0.00141,-0.007 0,-0.008 0.00201,-0.003 0.00757,-0.003 0.00957,-0.008 0.00289,-0.007 -0.00289,-0.0115 0,-0.0181 0.00201,-0.003 0.00757,-0.003 0.00957,-0.008 0.00289,-0.007 -0.00289,-0.0289 0,-0.0345 0.00201,-0.003 0.00757,-0.003 0.00957,-0.008 0.00289,-0.007 -0.00289,-0.0114 0,-0.0181 0.00201,-0.003 0.00757,-0.003 0.00957,-0.008 0.00713,-0.0115 -0.028317,-0.0347 0,-0.043 0.041918,0.0567 0.027782,0.033 0.047484,0.0687 0.00312,0.007 0.00801,0.01 0.00957,0.0181 0.00186,0.008 -0.00222,0.0181 0,0.0258 0.00108,0.003 0.00757,0.003 0.00957,0.008 0.00141,0.002 0,0.007 0,0.008 0,0.007 -0.00201,0.0114 0,0.0181 0.00141,0.003 0.00757,0.003 0.00957,0.008 0.00141,0.002 -0.00222,0.007 0,0.008 0.00491,0.003 0.015142,0.003 0.018922,0.008 0.00356,0.003 0,0.0114 0,0.0181 0,0.007 -0.00172,0.0399 0,0.043 0.00201,0.003 0.00757,0.003 0.00957,0.008 0.00141,0.002 -0.001,0.007 0,0.008 0.00222,0.007 0.00734,0.0115 0.00957,0.0182 0.00123,0.003 -0.00147,0.0244 0,0.0258 0.00222,0.002 0.00734,-0.002 0.00957,0 0.00195,0.002 -0.0019,0.0224 0,0.0258 0.00201,0.003 0.00801,0.003 0.00957,0.008 0.00201,0.007 -0.00201,0.0115 0,0.0182 0.00141,0.003 0.00757,0.003 0.00957,0.008 0.00141,0.002 0,0.007 0,0.008 0.00312,0.002 0.00757,0.003 0.00957,0.008 0.0019,0.003 -0.00195,0.024 0,0.0258 0.00222,0.002 0.00801,-0.002 0.00957,0 0.00289,0.007 -0.00356,0.0114 0,0.0181 0.00401,0.007 0.01403,0.003 0.018922,0.008 0.00289,0.002 -0.00289,0.0404 0,0.043 0.00222,0.002 0.00734,-0.002 0.00957,0 0.00222,0.002 -0.001,0.007 0,0.008 0.00222,0.007 0.00623,0.0114 0.00957,0.0182 0.034416,0.0623 -0.010024,-0.0147 0.018922,0.0258 0.00401,0.007 0.00623,0.0114 0.00957,0.0181 0.00312,0.007 0.0069,0.0115 0.00957,0.0181 0.00378,0.008 0.00356,0.0181 0.00957,0.0258 0.0069,0.008 0.024109,0.007 0.028495,0.0181 0.00201,0.007 -0.00201,0.0115 0,0.0181 0.00141,0.003 0.00757,0.003 0.00957,0.008 0.00141,0.002 -10e-4,0.007 0,0.008 0.00222,0.007 0.00623,0.0115 0.00957,0.0182 0.00312,0.007 0.00445,0.0114 0.00957,0.0181 0.00222,0.002 0.00734,-0.002 0.00957,0 0.00222,0.002 -0.00141,0.007 0,0.008 0.00201,0.003 0.00757,0.003 0.00957,0.008 0.00141,0.002 -0.00141,0.007 0,0.008 0.00201,0.003 0.00757,0.003 0.00957,0.008 0.00289,0.007 -0.00445,0.0147 0,0.0181 0.00491,0.003 0.01403,0.003 0.018922,0.008 0.00445,0.003 -0.00289,0.0114 0,0.0181 0.00201,0.003 0.00757,0.003 0.00957,0.008 0.00141,0.002 -0.00222,0.007 0,0.008 0.00222,0.002 0.00734,-0.002 0.00957,0 0.00445,0.003 -0.00289,0.0114 0,0.0182 0.019812,0.0356 -6.634e-4,-0.01 0.018922,0.008 8.8e-6,0 -1.57e-5,0.0258 0,0.0258 0.00141,0.003 0.00757,0.003 0.00957,0.008 0.00646,0.0115 -0.011577,0.008 0.00957,0.0182 0.023396,0.01 -0.00868,-0.025 0.028495,0.008 0.00222,0.002 -0.00141,0.007 0,0.008 0.021594,0.0201 0.00245,-0.002 0.00957,0.0181 0.022929,0.0623 -0.00267,-0.0147 0.018922,0.0258 0.00141,0.002 -0.00222,0.007 0,0.008 0.00222,0.002 0.00734,-0.002 0.00957,0 0.00222,0.002 -0.00101,0.007 0,0.008 0.00222,0.007 0.00556,0.0114 0.00957,0.0181 0.00245,0.003 0.0069,0.007 0.00957,0.008 0.011136,0.0147 0.011348,0.0257 0.018922,0.043 0.00267,0.007 0.00734,0.0114 0.00957,0.0181 0.011806,0.0322 0.00579,0.0389 0.018922,0.0687 0.00267,0.007 0.00623,0.0114 0.00957,0.0181 0.00312,0.007 0.00445,0.0114 0.00957,0.0181 0.00222,0.002 0.00734,-0.002 0.00957,0 0.00491,0.003 0.00445,0.0114 0.00957,0.0181 0.00491,0.003 0.01313,0.007 0.018922,0.008 0.00378,0.002 0.00623,0.007 0.00957,0.008 0.00312,0.002 0.00757,0.003 0.00957,0.008 0.00289,0.007 -0.00445,0.0147 0,0.0181 0.00222,0.002 0.00734,-0.002 0.00957,0 0.00222,0.002 -0.00222,0.007 0,0.008 0.00222,0.002 0.00734,-0.002 0.00957,0 0.00222,0.002 -0.00101,0.007 0,0.008 0.00222,0.007 0.00535,0.0114 0.00957,0.0181 0.023285,0.028 0.017586,0.0114 0.056967,0.0258 0.00734,0.002 0.029585,0.0306 0.037977,0.0345 0.00289,0.001 0.00734,-0.002 0.00957,0 0.00222,0.002 -0.00222,0.007 0,0.008 0.00222,0.002 0.00623,0 0.00957,0 0.022262,0 0.044322,0 0.066472,0 0.00312,0 0.00623,0 0.00957,0 0.00312,0 0.00801,-0.002 0.00957,0 0.00289,0.007 -0.00445,0.0147 0,0.0181 0.00445,0.003 0.013359,-0.002 0.018922,0 0.00289,10e-4 0,0.007 0,0.008 0,0.002 0,0.007 0,0.008"
       id="path829"
       inkscape:connector-curvature="0" />
  </g>
</svg>
