<?xml version="1.0" encoding="UTF-8"?>
<svg viewBox="0 0 383.59171 366.83942" xmlns="http://www.w3.org/2000/svg">
 <g transform="matrix(.82944 0 0 .82944 -26.694 -10.924)">
  <path d="m92.557 219.42-50.461 41.689s-5.4725-2.0744-7.5057-0.45484 0.01616 7.2545 0.01616 7.2545c-0.68661 4.4126 1.3116 11.406 4.4938 13.7l105.71 61.683-0.83037-16.557s-74.333-61.711-80.702-56.708l44.164-29.62-14.888-20.987z" fill="#fff" fill-rule="evenodd" stroke="#000" stroke-width="3.0141"/>
  <g transform="matrix(.63685 0 0 .63677 169.53 97.514)" fill="none" stroke="#000" stroke-width="4.7331">
   <path d="m89.904 77.953c6.0609 26.886-1.3209 88.583-1.3209 88.583"/>
   <path d="m107.58 77.953c6.0609 26.886-1.3209 88.583-1.3209 88.583"/>
  </g>
  <path d="m225.7 14.727c14.142 0 38.613-1.5738 49.222 12.974 10.073 13.812 1.7358 34.556 6.8073 45.027s13.602 14.136 14.394 34.032-34.292 45.551-59.427 45.027-46.08-12.566-51.317-29.32c-5.4933-17.576-25.658-30.362-25.658-57.593 0-35.603 29.209-50.147 65.978-50.147z" fill="#fff" fill-rule="evenodd" stroke="#000" stroke-width="3.0141"/>
  <path d="m184.99 121.68c-5.76-30.367 8.4112-45.027 8.4112-45.027" fill="none" stroke="#000" stroke-width="3.0141"/>
  <path d="m203.71 109.9c15.575 12.954 61.266 5.7592 73.833-0.52357-20.405 22.571-60.218 25.131-73.833 0.52357z" fill-rule="evenodd" stroke="#000" stroke-width="3.0141"/>
  <path d="m226.8 116.9v8.292h9.6219v-8.0859c-3.2632 0.07786-6.4953 0.00358-9.6219-0.20616z" fill="#fff" fill-rule="evenodd" stroke="#000" stroke-width="3.0141"/>
  <path d="m251.61 115.87c-2.9602 0.39271-5.9993 0.70053-9.072 0.91624v12.85h9.072v-13.767z" fill="#fff" fill-rule="evenodd" stroke="#000" stroke-width="3.0141"/>
  <path d="m200.18 100.22c-3.4551 0.85024-5.3787 3.2956-5.4982 6.8064" fill="none" stroke="#000" stroke-width="3.0141"/>
  <path d="m285.02 101.25c3.2701 1.4034 4.5785 4.1342 3.3716 7.3261" fill="none" stroke="#000" stroke-width="3.0141"/>
  <path d="m241.25 91.726c17.633-13.762 21.839 22.02 0.9706 13.6" fill="none" stroke="#000" stroke-width="3.0141"/>
  <path d="m252.01 67.13v15.683c0 5.7464 5.9902 9.8294 12.718 9.2225l12.661-1.1421c4.9251-0.44428 8.5838-4.2543 8.5839-8.5795v-14.878l-33.962-0.30613" fill="#fff" fill-rule="evenodd" stroke="#000" stroke-width="3.0141"/>
  <path d="m201.71 66.76v18.528c0 6.7889 7.0681 11.613 15.006 10.896l14.939-1.3493c5.8114-0.52488 10.128-5.0261 10.128-10.136v-17.577l-40.073-0.36167" fill="#fff" fill-rule="evenodd" stroke="#000" stroke-width="3.0141"/>
  <path d="m241.61 71.947c3.3315-1.7672 7.0688-1.8729 10.553 0" fill="none" stroke="#000" stroke-width="3.0141"/>
  <path d="m201.62 71.144-23.142-7.5895" fill="none" stroke="#000" stroke-width="3.0141"/>
  <path d="m234.59 14.667c-3.2184-0.00598-6.2372 0.06872-8.8888 0.06872-18.255 0-34.646 3.5835-46.525 11.549l-1.8614-10.558-3.4488 14.691-11.142-2.9758 6.3141 8.1232c-5.925 7.4979-9.3156 17.183-9.3156 29.313 0 2.8 0.23002 5.433 0.61855 7.9484l-0.09163 0.16035 5.2462 36.398 5.2233-32.733 9.6906 16.492 2.0847-31.679 6.3 15.714 3.9633-29.068 3.8946 13.629 5.7469-26.702 8.8178 6.9972 7.4742 13.345 4.5877-17.044 13.419 15.02v-16.24l20.16 19.905-3.9175-16.744 20.412 15.691-1.8327-11.522 16.243 12.049-8.8659-20.226c-0.8022-3.0307-2.0355-5.9234-3.9633-8.5669-8.6196-11.82-26.397-13.008-40.343-13.034z" fill-rule="evenodd" stroke="#000" stroke-width="1.2056"/>
  <path d="m243.78 140.08c-2.9206-2.0323-6.0273-1.8613-8.7427 0.36785" fill="none" stroke="#000" stroke-width="3.0141"/>
  <path d="m453.07 32.642-8.4582 28.894 6.8063-6.5269-4.0002 53.807c-9.9629-6.11-20.604-27.919-34.927-65.369l0.13931 27.142 4.4182-5.9299c7.924 31.106 18.809 48.972 30.091 53.628v331.88h11.722v-331.78c11.329-4.517 22.165-22.46 29.872-53.847l4.4182 5.8901-0.0199-27.361c-14.058 38.124-24.53 60.072-34.529 65.926l-3.9007-53.966 5.7715 7.1637-7.4034-29.55z" fill="#fff" fill-rule="evenodd" stroke="#000" stroke-width="3.0141"/>
  <g transform="translate(-43.437 -4.0406)" fill="#fff" fill-rule="evenodd" stroke="#000" stroke-width="3.0141">
   <path d="m507.33 195.03h2.1846a6.674 3.525 0 0 1 6.674 3.525 6.674 3.525 0 0 1 -6.674 3.525h-2.1846a6.674 3.525 0 0 1 -6.674 -3.525 6.674 3.525 0 0 1 6.674 -3.525"/>
   <path d="m401.52 240.3 28.496 53.414c-7.5057-4.321 46.93-92.853 46.93-92.853 3.7844-8.8723 5.1225-18.572 10.247-18.465h17.457s7.0308 5.9708 10.247 9.187-2.5733 10.292-6.4332 6.4324-5.4386-5.3276-5.4386-5.3276l-4.763 0.0942c0.40773 12.053-3.8285 16.708-8.4964 19.203v6.3062h-9.6497l-41.816 90.179c-2.6307 4.5871-6.943 8.1297-10.407 7.7188-2.3524 1.6885-6.5348 1.3284-5.1465-6.4324l-42.034-58.516 20.807-10.94z"/>
   <path d="m505.51 202.22h4.459a6.674 3.525 0 0 1 6.674 3.525 6.674 3.525 0 0 1 -6.674 3.525h-4.459a6.674 3.525 0 0 1 -6.674 -3.525 6.674 3.525 0 0 1 6.674 -3.525"/>
   <path d="m506.2 209.05h1.9571a6.674 3.525 0 0 1 6.674 3.525 6.674 3.525 0 0 1 -6.674 3.525h-1.9571a6.674 3.525 0 0 1 -6.674 -3.525 6.674 3.525 0 0 1 6.674 -3.525"/>
  </g>
  <path d="m146.74 228.27-21.279 225.78 213.58 0.7915-21.873-225.92 20.236 32.801 36.172-26.015-57.051-62.896h-46.319c-16.405 23.944-62.268 24.721-79.128 0l-43.884 0.52564-67.409 40.147 25.733 41.167 41.222-26.373z" fill-rule="evenodd" stroke="#000" stroke-width="1.2056"/>
  <path d="m166.43 233.97v3.5402h3.5406v-3.5402h-3.5406zm4.5392 0v3.5402h3.5406v-3.5402h-3.5406zm18.157 0v3.5402h3.5406v-3.5402h-3.5406zm13.595 0v3.5402h3.5406v-3.5402h-3.5406zm4.5392 0v3.5402h3.5406v-3.5402h-3.5406zm4.5392 0v3.5402h3.5406v-3.5402h-3.5406zm4.5392 0v3.5402h3.5406v-3.5402h-3.5406zm4.5392 0v3.5402h3.5406v-3.5402h-3.5406zm13.618 0v3.5402h3.5406v-3.5402h-3.5406zm4.5392 0v3.5402h3.5406v-3.5402h-3.5406zm4.5392 0v3.5402h3.5406v-3.5402h-3.5406zm4.5392 0v3.5402h3.5406v-3.5402h-3.5406zm4.5392 0v3.5402h3.5406v-3.5402h-3.5406zm18.157 0v3.5402h3.5406v-3.5402h-3.5406zm4.5392 0v3.5402h3.5406v-3.5402h-3.5406zm4.5392 0v3.5402h3.5406v-3.5402h-3.5406zm4.5392 0v3.5402h3.5406v-3.5402h-3.5406zm-118 4.5387v3.5402h3.5406v-3.5402h-3.5406zm4.5392 0v3.5402h3.5406v-3.5402h-3.5406zm4.5392 0v3.5402h3.5406v-3.5402h-3.5406zm13.618 0v3.5402h3.5406v-3.5402h-3.5406zm27.213 0v3.5402h3.5406v-3.5402h-3.5406zm4.5392 0v3.5402h3.5406v-3.5402h-3.5406zm13.618 0v3.5402h3.5406v-3.5402h-3.5406zm4.5392 0v3.5402h3.5406v-3.5402h-3.5406zm13.618 0v3.5402h3.5406v-3.5402h-3.5406zm4.5392 0v3.5402h3.5406v-3.5402h-3.5406zm13.618 0v3.5402h3.5406v-3.5402h-3.5406zm4.5392 0v3.5402h3.5406v-3.5402h-3.5406zm9.0785 0v3.5402h3.5406v-3.5402h-3.5406zm4.5392 0v3.5402h3.5406v-3.5402h-3.5406zm-122.54 4.5387v3.5402h3.5406v-3.5402h-3.5406zm4.5392 0v3.5402h3.5406v-3.5402h-3.5406zm4.5392 0v3.5402h3.5406v-3.5402h-3.5406zm4.5392 0v3.5402h3.5406v-3.5402h-3.5406zm9.0785 0v3.5402h3.5406v-3.5402h-3.5406zm22.673 0v3.5402h3.5406v-3.5402h-3.5406zm4.5392 0v3.5402h3.5406v-3.5402h-3.5406zm18.157 0v3.5402h3.5406v-3.5402h-3.5406zm4.5392 0v3.5402h3.5406v-3.5402h-3.5406zm13.618 0v3.5402h3.5406v-3.5402h-3.5406zm4.5392 0v3.5402h3.5406v-3.5402h-3.5406zm13.618 0v3.5402h3.5406v-3.5402h-3.5406zm4.5392 0v3.5402h3.5406v-3.5402h-3.5406zm13.618 0v3.5402h3.5406v-3.5402h-3.5406zm4.5392 0v3.5402h3.5406v-3.5402h-3.5406zm-127.08 4.5387v3.5402h3.5406v-3.5402h-3.5406zm9.0785 0v3.5402h3.5406v-3.5402h-3.5406zm4.5392 0v3.5402h3.5406v-3.5402h-3.5406zm4.5392 0v3.5402h3.5406v-3.5402h-3.5406zm4.5392 0v3.5402h3.5406v-3.5402h-3.5406zm18.134 0v3.5402h3.5406v-3.5402h-3.5406zm4.5392 0v3.5402h3.5406v-3.5402h-3.5406zm4.5392 0v3.5402h3.5406v-3.5402h-3.5406zm18.157 0v3.5402h3.5406v-3.5402h-3.5406zm4.5392 0v3.5402h3.5406v-3.5402h-3.5406zm4.5392 0v3.5402h3.5406v-3.5402h-3.5406zm4.5392 0v3.5402h3.5406v-3.5402h-3.5406zm4.5392 0v3.5402h3.5406v-3.5402h-3.5406zm18.157 0v3.5402h3.5406v-3.5402h-3.5406zm4.5392 0v3.5402h3.5406v-3.5402h-3.5406zm13.618 0v3.5402h3.5406v-3.5402h-3.5406zm4.5392 0v3.5402h3.5406v-3.5402h-3.5406zm-127.08 4.5387v3.5402h3.5406v-3.5402h-3.5406zm13.618 0v3.5402h3.5406v-3.5402h-3.5406zm4.5392 0v3.5402h3.5406v-3.5402h-3.5406zm4.5392 0v3.5402h3.5406v-3.5402h-3.5406zm27.213 0v3.5402h3.5406v-3.5402h-3.5406zm4.5392 0v3.5402h3.5406v-3.5402h-3.5406zm13.618 0v3.5402h3.5406v-3.5402h-3.5406zm4.5392 0v3.5402h3.5406v-3.5402h-3.5406zm13.618 0v3.5402h3.5406v-3.5402h-3.5406zm4.5392 0v3.5402h3.5406v-3.5402h-3.5406zm13.618 0v3.5402h3.5406v-3.5402h-3.5406zm4.5392 0v3.5402h3.5406v-3.5402h-3.5406zm13.618 0v3.5402h3.5406v-3.5402h-3.5406zm4.5392 0v3.5402h3.5406v-3.5402h-3.5406zm-127.08 4.5387v3.5402h3.5406v-3.5402h-3.5406zm18.157 0v3.5402h3.5406v-3.5402h-3.5406zm4.5392 0v3.5402h3.5406v-3.5402h-3.5406zm27.213 0v3.5402h3.5406v-3.5402h-3.5406zm4.5392 0v3.5402h3.5406v-3.5402h-3.5406zm13.618 0v3.5402h3.5406v-3.5402h-3.5406zm4.5392 0v3.5402h3.5406v-3.5402h-3.5406zm13.618 0v3.5402h3.5406v-3.5402h-3.5406zm4.5392 0v3.5402h3.5406v-3.5402h-3.5406zm13.618 0v3.5402h3.5406v-3.5402h-3.5406zm4.5392 0v3.5402h3.5406v-3.5402h-3.5406zm9.0785 0v3.5402h3.5406v-3.5402h-3.5406zm4.5392 0v3.5402h3.5406v-3.5402h-3.5406zm-122.54 4.5387v3.5402h3.5406v-3.5402h-3.5406zm22.696 0v3.5402h3.5406v-3.5402h-3.5406zm13.595 0v3.5402h3.5406v-3.5402h-3.5406zm4.5392 0v3.5402h3.5406v-3.5402h-3.5406zm4.5392 0v3.5402h3.5406v-3.5402h-3.5406zm4.5392 0v3.5402h3.5406v-3.5402h-3.5406zm18.157 0v3.5402h3.5406v-3.5402h-3.5406zm4.5392 0v3.5402h3.5406v-3.5402h-3.5406zm13.618 0v3.5402h3.5406v-3.5402h-3.5406zm4.5392 0v3.5402h3.5406v-3.5402h-3.5406zm13.618 0v3.5402h3.5406v-3.5402h-3.5406zm4.5392 0v3.5402h3.5406v-3.5402h-3.5406zm4.5392 0v3.5402h3.5406v-3.5402h-3.5406zm4.5392 0v3.5402h3.5406v-3.5402h-3.5406z" fill="#fff"/>
 </g>
</svg>
