<?xml version="1.0" encoding="UTF-8" standalone="no"?>
<!-- Generator: Adobe Illustrator 17.1.0, SVG Export Plug-In . SVG Version: 6.00 Build 0)  -->

<svg
   xmlns:dc="http://purl.org/dc/elements/1.1/"
   xmlns:cc="http://creativecommons.org/ns#"
   xmlns:rdf="http://www.w3.org/1999/02/22-rdf-syntax-ns#"
   xmlns:svg="http://www.w3.org/2000/svg"
   xmlns="http://www.w3.org/2000/svg"
   xmlns:sodipodi="http://sodipodi.sourceforge.net/DTD/sodipodi-0.dtd"
   xmlns:inkscape="http://www.inkscape.org/namespaces/inkscape"
   version="1.1"
   id="Capa_1"
   x="0px"
   y="0px"
   viewBox="0 0 748.36297 304.1907"
   xml:space="preserve"
   width="1112"
   height="452"
   sodipodi:docname="speech-bubble.svg"
   inkscape:version="0.92.3 (2405546, 2018-03-11)"><metadata
   id="metadata911"><rdf:RDF><cc:Work
       rdf:about=""><dc:format>image/svg+xml</dc:format><dc:type
         rdf:resource="http://purl.org/dc/dcmitype/StillImage" /><dc:title></dc:title></cc:Work></rdf:RDF></metadata><defs
   id="defs909" /><sodipodi:namedview
   pagecolor="#ffffff"
   bordercolor="#666666"
   borderopacity="1"
   objecttolerance="10"
   gridtolerance="10"
   guidetolerance="10"
   inkscape:pageopacity="0"
   inkscape:pageshadow="2"
   inkscape:window-width="1920"
   inkscape:window-height="986"
   id="namedview907"
   showgrid="false"
   inkscape:pagecheckerboard="true"
   inkscape:zoom="0.5"
   inkscape:cx="906.31147"
   inkscape:cy="378.45936"
   inkscape:window-x="-11"
   inkscape:window-y="-11"
   inkscape:window-maximized="1"
   inkscape:current-layer="g874" />
<g
   id="g874"
   transform="translate(0,-40.3793)">
	<path
   d="m 712.65168,222.896 c -6.05573,0 -10.96523,4.1449 -10.96523,9.26027 0,23.68531 -22.81644,42.95408 -50.86402,42.95408 -5.3291,0 -10.63773,-0.71859 -15.77969,-2.13603 -3.28811,-0.90504 -6.89201,-0.44943 -9.71958,1.23347 -2.82757,1.6829 -4.54984,4.39554 -4.64341,7.31685 -0.76025,23.41984 -23.06498,41.76506 -50.78069,41.76506 -14.77381,0 -28.81076,-5.45122 -38.51133,-14.9572 -2.08339,-2.04096 -5.11565,-3.21516 -8.3058,-3.21516 -3.19014,0 -6.2224,1.17297 -8.30579,3.21516 -9.70057,9.50598 -23.73752,14.9572 -38.51133,14.9572 -15.68027,0 -30.25818,-6.01054 -39.99822,-16.4907 -2.07901,-2.23728 -5.25892,-3.54236 -8.62598,-3.54236 -3.36705,0 -6.54697,1.30632 -8.62598,3.54236 -9.74004,10.48016 -24.3194,16.4907 -39.99822,16.4907 -10.23274,0 -20.08975,-2.5546 -28.50812,-7.3897 -5.00745,-2.87809 -11.82782,-1.78044 -15.23289,2.44842 -3.40653,4.22885 -2.10679,9.98874 2.90067,12.86436 12.06905,6.93286 26.19227,10.59746 40.84034,10.59746 18.20374,0 35.36213,-5.64506 48.6242,-15.76469 13.26208,10.11839 30.42046,15.76469 48.6242,15.76469 17.24464,0 33.7802,-5.17711 46.81712,-14.44973 13.03693,9.27262 29.57249,14.44973 46.81713,14.44973 19.08973,0 37.12241,-6.19944 50.77777,-17.4587 10.44036,-8.60958 17.45371,-19.45027 20.39239,-31.27996 3.23255,0.37288 6.48996,0.55932 9.75467,0.55932 40.13857,0 72.79448,-27.57709 72.79448,-61.47463 -10e-4,-5.11537 -4.91096,-9.26027 -10.96669,-9.26027 z"
   id="path864"
   inkscape:connector-curvature="0"
   style="fill:#ffffff;stroke-width:1.34356713" />
	<path
   d="m 320.67556,290.57995 c 5.75748,-1.58783 8.89938,-6.81556 7.02067,-11.67782 -1.88017,-4.86103 -8.07186,-7.51441 -13.82642,-5.92905 -5.14195,1.41744 -10.45059,2.13604 -15.77969,2.13604 -28.04612,0 -50.86402,-19.26878 -50.86402,-42.95408 0,-12.23344 6.26187,-23.93842 17.18178,-32.11339 2.34655,-1.75822 3.69016,-4.28072 3.69016,-6.92915 0,-2.64844 -1.34361,-5.17094 -3.69016,-6.92792 -10.91845,-8.17744 -17.18178,-19.88242 -17.18178,-32.11462 0,-23.68654 22.81644,-42.95532 50.86402,-42.95532 5.32618,0 10.63481,0.7186 15.78116,2.13604 3.28956,0.90627 6.89054,0.44819 9.71811,-1.23471 2.82757,-1.6829 4.54838,-4.39554 4.64341,-7.31561 0.76172,-23.417377 23.06645,-41.762591 50.78215,-41.762591 15.68028,0 30.25964,6.010534 39.99822,16.489464 2.07901,2.23851 5.25892,3.54359 8.62598,3.54359 3.36705,0 6.54843,-1.30755 8.62598,-3.54359 9.73858,-10.47893 24.31648,-16.489464 39.99822,-16.489464 6.05572,0 10.96522,-4.144897 10.96522,-9.260271 0,-5.115375 -4.9095,-9.260272 -10.96522,-9.260272 -18.2052,0 -35.36213,5.645061 -48.6242,15.763452 -13.26354,-10.118391 -30.419,-15.763452 -48.6242,-15.763452 -19.08972,0 -37.1224,6.199443 -50.7763,17.458699 -10.44036,8.608348 -17.45372,19.450278 -20.3924,31.278728 -3.23255,-0.37288 -6.48995,-0.55932 -9.75466,-0.55932 -40.13858,0 -72.79449,27.578327 -72.79449,61.475857 0,14.3065 5.96509,28.09937 16.64815,39.04254 -10.68306,10.94194 -16.64815,24.73481 -16.64815,39.04254 0,33.89754 32.65445,61.47463 72.79449,61.47463 7.64203,0 15.24166,-1.02604 22.58397,-3.05095 z"
   id="path866"
   inkscape:connector-curvature="0"
   style="fill:#ffffff;stroke-width:1.34356713" />
	<path
   d="m 515.92237,78.864203 c 4.58785,3.33864 11.51203,2.90402 15.46536,-0.96924 9.69911,-9.50598 23.73606,-14.957194 38.50987,-14.957194 27.71717,0 50.0219,18.343984 50.78069,41.763821 0.0936,2.92008 1.81584,5.63272 4.64341,7.31562 2.82756,1.6829 6.42854,2.14097 9.71811,1.2347 5.14635,-1.41744 10.45644,-2.13603 15.78116,-2.13603 28.04612,0 50.86402,19.26877 50.86402,42.95531 0,12.2322 -6.26334,23.93719 -17.18178,32.11462 -4.53229,3.39297 -4.94751,9.24546 -0.92985,13.0718 2.16673,2.06443 5.17998,3.11639 8.2093,3.11639 2.58633,0 5.1829,-0.76798 7.27068,-2.33235 15.61009,-11.68893 24.56357,-28.44385 24.56357,-45.97046 0,-33.89753 -32.65445,-61.475857 -72.79448,-61.475857 -3.26472,0 -6.52066,0.18644 -9.75467,0.55932 -2.93868,-11.82845 -9.95204,-22.67038 -20.39239,-31.278728 -13.6539,-11.259256 -31.68804,-17.458699 -50.77777,-17.458699 -21.16289,0 -41.2541,7.794679 -55.12438,21.386297 -3.95187,3.87573 -3.43723,9.72205 1.14915,13.06068 z"
   id="path868"
   inkscape:connector-curvature="0"
   style="fill:#ffffff;stroke-width:0.13459766;stroke-miterlimit:4;stroke-dasharray:none" />
	<path
   d="m 173.4765,51.348487 c -14.35709,0 -25.60246,7.549336 -25.60246,17.187129 0,9.637796 11.24607,17.187126 25.60246,17.187126 14.35639,0 25.60246,-7.54933 25.60246,-17.187126 0,-9.637793 -11.24607,-17.187129 -25.60246,-17.187129 z m 0,23.890039 c -9.08842,0 -15.11824,-4.034327 -15.11824,-6.70291 0,-2.668583 6.02982,-6.702911 15.11824,-6.702911 9.08842,0 15.11824,4.034328 15.11824,6.702911 0,2.668583 -6.02982,6.70291 -15.11824,6.70291 z"
   id="path870"
   inkscape:connector-curvature="0"
   style="fill:#ffffff;stroke-width:0.04703838;stroke-miterlimit:4;stroke-dasharray:none" />
	<path
   d="m 80.167434,88.62897 c -1.95819,0 -3.54574,1.58707 -3.54574,3.545734 0,2.06456 -3.50933,4.37402 -8.20624,4.37402 -4.69692,0 -8.20625,-2.30946 -8.20625,-4.37402 0,-2.065036 3.50933,-4.37449 8.20625,-4.37449 1.95819,0 3.54573,-1.587071 3.54573,-3.545733 0,-1.958663 -1.58754,-3.545734 -3.54573,-3.545734 -8.57831,0 -15.297715,5.036359 -15.297715,11.465957 0,6.4296 6.719875,11.465486 15.297715,11.465486 8.57784,0 15.29771,-5.035886 15.29771,-11.465486 0,-1.958191 -1.58754,-3.545734 -3.54573,-3.545734 z"
   id="path872"
   inkscape:connector-curvature="0"
   style="fill:#ffffff;stroke-width:0.47276455" />
</g>
<g
   id="g876"
   transform="translate(0,-40.3793)">
</g>
<g
   id="g878"
   transform="translate(0,-40.3793)">
</g>
<g
   id="g880"
   transform="translate(0,-40.3793)">
</g>
<g
   id="g882"
   transform="translate(0,-40.3793)">
</g>
<g
   id="g884"
   transform="translate(0,-40.3793)">
</g>
<g
   id="g886"
   transform="translate(0,-40.3793)">
</g>
<g
   id="g888"
   transform="translate(0,-40.3793)">
</g>
<g
   id="g890"
   transform="translate(0,-40.3793)">
</g>
<g
   id="g892"
   transform="translate(0,-40.3793)">
</g>
<g
   id="g894"
   transform="translate(0,-40.3793)">
</g>
<g
   id="g896"
   transform="translate(0,-40.3793)">
</g>
<g
   id="g898"
   transform="translate(0,-40.3793)">
</g>
<g
   id="g900"
   transform="translate(0,-40.3793)">
</g>
<g
   id="g902"
   transform="translate(0,-40.3793)">
</g>
<g
   id="g904"
   transform="translate(0,-40.3793)">
</g>
</svg>