<?xml version="1.0" encoding="UTF-8"?>
<svg viewBox="0 0 1063 941" xmlns="http://www.w3.org/2000/svg">
 <g fill-rule="evenodd">
  <path d="m604 754h7l1 1q0 1-2 1-1 0-34 4l-32 3-1-1h-7l-4-1q-3-1-6-1h-4l-4-1-3-1h2v-1h1v-1h4q4 0 8-1h34q32-1 40-1z" fill="#cbcbcb" stroke="#cbcbcb"/>
  <path d="m371 768h27l-1 1-1 1h-3l3 1 2 1h5q5 2 3 2-2 1-2 2h-4q-5 0-34 3l-28 3h-5q-5 0-7-1-3-1-28-3l-26-2h-2l-2-1-2-1h4l2-1 3-1h2l1-1 1-1h4v-1h31q30-1 57-1z" fill="#b6b6b6" stroke="#b6b6b6"/>
  <path d="m556 122h1v1q1 1 1 1v1h-2q-1 1-4 4l-3 4v-1q-1-2-1-4 0-1-7 0h-7l1-1 1-1h1l1-1 1-1h3l6-1q6-1 8-1z" fill="#fa484e" stroke="#fa484e"/>
  <path d="m528 170v-1l2 3q2 2 3 2v1q-1 0-1 1t-1 2h-2t-1-1q-2-1-2-3t1-2q1-1 1-2z" fill="#852908" stroke="#852908"/>
  <path d="m532 136h1v2q0 3 4 3 4-1 4-1h3v1l1 1q1 2 4 0 3 0 6-2t3-1 1-1l3 1q4 1 6 4t4 3q1 0 2 1v1q0 1-2 4v3l2-1q2 0 3 1t1 1 1 6v6q-1 1-5 6-4 4-10 7l-7 2h-1q-2-1-9-2l-7-1-1-1q-1-1-3-2l-3-2v-1q-1 0-3-2l-2-3v-1t-1-1-3-9l-2-7v-4q0-3 1-4v-1q1 0 1 0v-1l4-3q4-2 4-2z" fill="#dc0803" stroke="#dc0803"/>
  <path d="m596 105v1q0 1 1 2 0 2-4 0t-12 0h-8v1h-1v1h-1v1h-1v2l-1 2v2q-1 0-1 1v5q0 4 1 5l1 1 2 3q2 4 3 4h1l2 2q3 2 8 1t8-2q2-1 2-2 1-1 1-2h1v-1h1v-1h1v-2h2v3l1 2v2l-1 1v1h-1v1h-1v1h-1t-1 1v1h-1v1h-1v1h-2t0 1h-1q-1 1-1 1h-16l-1 1h-1q-1-1-4 0-2 1-2 0t-1-4-5-4l-3-1v-1q1-1 1-5 0-3-1-4l-1-1v-3t-1-1v-5q1-4 1-4v-1t1-1h3q2-1 2-4 0-2 0-3v-1t1 0v-1q1 0 1-1l4-2q4-2 10-1t10 3q5 2 6 3z" fill="#fb170e" stroke="#fb170e"/>
  <path d="m235 412l1-1q0 1 0 1h1l8 132q7 131 8 134v2l-1 5q-2 5-2 10v5l-1-1-1-1v-4q0-4-1-7v-3h-2v-2l-1-1v3l-1-1-1-1v2l-2 14q-2 15-2 18v4h-1v-1h-1v2l-1-1-1-1v-2h-1v-43q-1-35-1-103t2-113q0-45 1-46z" fill="#959493" stroke="#959493"/>
  <path d="m542 138q-1 0-1 1v1t-4 1q-4 0-4-3v-2l1-1q0-1 4-1t4 2 0 2z" fill="#ea154f" stroke="#ea154f"/>
  <path d="m690 143h10v1h10v1h-1v1h-2l-3 1q-4 1-6 1-2 2-1 2t1 1-2 1q-2 1-2 3t-2 3q-2 2-3 6-2 3-5 3-4-1-12 2t-15 3l-7 2h-1v1h1l1 3q1 2 1 3v4h-1v1h-2l-1-1-1-1q-1 0 0-2l1-3h-1l-1 1h-2l-2 1h-3l-1 5q-1 6 2 6h3v4l-1 5-1 2q-2 1-5 3-2 1-3 2 0 1 2 2 2 0 1 4-2 4 0 8t4 11 4 10q0 3 0 5-2 3-1 5 1 3-9 7-11 4-10 4 0 0-2 1t-4 3q0 2-1 7t1 12 1 7 1 6q2 5 4 19t4 23q2 8 3 11t2 3v1h1v1h1l-1 1h-1v2l-1 2v1h-3v-2l1-2v-4l-1-1-1-1v-1 4h-1q0 1-1 0 0-1-1-1t-1 3v2h-1v-1h-1v-1h-1v-1q-1 0-1 0 0-1-2-6t-5-6q-2-2-4-1-2 0-3-5-2-5-4-6-2-2-3-6-1-3-3-5t-2-5q0-4-2-5-1-1-2-4-1-2-2-2-1-1-2-2-1-2-6-3-4 0-6-2t-4-2-2-3q-1-3-2-3t-1-2q-1-2-2-3-2-1-3-7-2-6-3-6t-2-3q-1-2-4-4-2-1-3-4-1-2-8-5-8-2-9-4t-4-2q-3 1-3 2t-2 2q-2 0-5 5-3 4-5 6-2 3-10 3t-11 0-5 2q-2 4-8 4t-12 0q-5 0-12-1t-7-3q1-2-1-3-1-1-3-4-3-3-4-4-2-1-10-1-9-1-11-2-2-2-6-3-3-2-3-1 0 2-3 2-4 1-4-1-1-2-2-2-1-1-2-2 0-1-1-1t-1-3q0-2-1-2t-1 1-3 0q-3 0-3-2 0-1-2-3-2-3-7-4t-5-3q1-3-2-2-2 0-7 0-5-2-9-2t-5-3q-1-2-4-7-3-4-5-9t-5-4-3-1q0-1-2-1-1 1-2-1 0-1-2 0-3 2-4 0-1 0-4-2-4-2-5-6-1-3 1-4h2l-2-1q-2-1-6-1t-8-1q-3-1-4 0 0 1-8-3-9-4-11-6l-3-3v-5h-3v-1l1-1 1-1 1-1h8q9 0 10 0t3 0h2v-1h1v-1h-4l1-1 1-1h3l-4-1-4-1 103-5q103-5 113-6l10-1h3v1l-1 2-1 2v-1h-1v1h-1v2l-6 3q-5 2-9 8-5 6-4 14t2 10q1 3 2 3t1 1 2 2q2 0 4 1h1v2l8 1q8 0 15 0t13-6q5-6 7-9t3-3v-1l7-2q6-3 10-7 4-5 5-6v-1h1l1-7q1-7 1-10t4-3q5-1 5-1l1-1q1-1 2-1h1v1q1 1 1 1l42-1q41-1 52-2zm-56 51l1-1q1 0 1 1t-1 1v1h-1v3h-1v-1h-1v-1l1-1 1-2z" fill="#f6e56d" stroke="#f6e56d"/>
  <path d="m226 244l1-21 1 10q2 10 2 38v28l-1 4q-1 4-3 31 0 27-1 68v40h-1v-88q0-88 2-110z" fill="#dfded0" stroke="#dfded0"/>
  <path d="m521 153l1-2 2 7q2 8 3 9t1 1v2q0 1-1 2-1 0-1 2t2 3q1 1 1 1h2q1-1 1-2t1-1l3 2q2 1 3 2l1 1v5l-1 2v2h-1q-1 1-2 1t-1 1q-1 1-3 2t-8 3l-6 2-4 1h-4q-2-1-4-1-2-1-2-2t-1-1-2-3q-1-2-2-10t4-14q4-6 9-8l6-3v-2h1v-1h1v1l1-2z" fill="#b06d3a" stroke="#b06d3a"/>
  <path d="m812 137h4l13 293q13 293 13 294-1 0-14 2-12 0-16 1h-16q-11 1-38 2l-28 1v1h-10q-9 1-78 4l-68 3v1h-10q-10 1-152 8l-143 7-1 1h-6q-4 0-6-37l-3-38v-2q-1-3-8-134l-8-132q-1-1-1-1v-7q0-7-3-56l-3-49v-28q0-28-2-38l-1-10v-13q-1-14 0-30v-15l30-1q30-2 33-2h3l4 1 4 1h-3l-1 1-1 1h4v1h-1v1h-2q-2 0-3 0t-10 0h-8l-1 1-1 1-1 1v1h3v5l3 3q2 2 11 6 8 4 8 3 1-1 4 0 4 1 8 1t6 1l2 1h-2q-2 1-1 4 1 4 5 6 3 2 4 2 1 2 4 0 2-1 2 0 1 2 2 1 2 0 2 1 0 2 3 1t5 4 5 9q3 5 4 7 1 3 5 3t9 2q5 0 7 0 3-1 2 2 0 2 5 3t7 4q2 2 2 3 0 2 3 2 3 1 3 0t1-1 1 2q0 3 1 3t1 1q1 1 2 2 1 0 2 2 0 2 4 1 3 0 3-2 0-1 3 1 4 1 6 3 2 1 11 2 8 0 10 1 1 1 4 4 2 3 3 4 2 1 1 3 0 2 7 3t12 1q6 0 12 0t8-4q2-2 5-2t11 0 10-3q2-2 5-6 3-5 5-5 2-1 2-2t3-2q3 0 4 2t9 4q7 3 8 5 1 3 3 4 3 2 4 4 1 3 2 3t3 6q1 6 3 7 1 1 2 3 0 2 1 2t2 3q0 3 2 3t4 2 6 2q5 1 6 3 1 1 2 2 1 0 2 2 1 3 2 4 2 1 2 5 0 3 2 5t3 5q1 4 3 6 2 1 4 6 1 5 3 5 2-1 4 1 3 1 5 6t2 6 1 0v1h1v1h1v1h1v-2q0-3 1-3t1 1q1 1 1 0h1v-4 1l1 1 1 1v4l-1 2v2h3v-1l1-2v-2h1l1-1h-1v-1h-1v-1q-1 0-2-3t-3-11q-2-9-4-23t-4-19q-2-6-1-6t-1-7-1-12 1-7q2-2 4-3t2-1q-1 0 10-4 10-4 9-7-1-2 1-5 0-2 0-5-2-3-4-10t-4-11 0-8q1-4-1-4-2-1-2-2 1-1 3-2 3-2 5-3l1-2 1-5v-4h-3q-3 0-4 2l-1 2h-1v3h-1v-1h-1v-1l1-1 1-2v-1l1-1 1-1 1-4q1-4 2-5v-1h3l2-1h2l1-1h1l-1 3q-1 2 0 2l1 1 1 1h2v-1h1v-4q0-1-1-3l-1-3h-1v-1h1l7-2q7 0 15-3t12-2q3 0 5-3 1-4 3-6 2-1 2-3t2-3q2 0 2-1t-1-1 1-2q2 0 6-1l3-1h2v-1h1v-1h-10v-2l54-2q53-2 58-3z" fill="#faee7a" stroke="#faee7a"/>
  <path d="m680 744h18t-10 3q-9 3-42 5l-34 3-1-1 1-1 2-1h3l1-1q2-1 0-1-1 0 1-2l2-1 20-1q20-2 39-2z" fill="#d1d1d1" stroke="#d1d1d1"/>
  <path d="m565 102h1v1q0 1-1 1 0 0-1 4 0 3-3 4l-3 1 3-5q3-6 4-6z" fill="#fa486b" stroke="#fa486b"/>
  <path d="m229 303l1-4 3 55q3 56 4 57v1h-1q-2 1-2 46-2 45-2 113t1 103v35l-1 5q0 5-1 8l-1 3v-3l-1 2-1 3v-1l-1-14q-1-13-1-142l-1-128v-40q1-41 1-68 2-27 3-31z" fill="#c4c4c3" stroke="#c4c4c3"/>
  <path d="m0 470v-470h1063v941h-1063v-471zm596-365l4 5q4 5 4 12 2 7 0 10 0 3-1 3v1l-1 1v1h-1v1h-1v1h-1t-1 1v1h-1v1h-1v1h-1l-1 1v1h2l42-1q41-1 52-2h10v-1l54-2q53-2 58-3h4l13 293q13 293 13 294-1 0-14 2-12 0-16 1h-4v1q0 1-2 2-1 0-15 4t-36 5l-22 1h-3q-2 0-17 2l-15 2t-10 3q-9 3-42 5l-34 3q0 1-2 1-1 0-34 4l-32 3v1h-8l-4 1q-5 1-26 2l-21 2q0 1-3 1-4 0-41 3l-37 3h-4q-5 0-34 3l-28 3-2 1-3 1h-4q-4 0-21 2t-41 2-29-2q-4-4-7-10-3-7-3-28v-22l-1-14q-1-13-1-142l-1-128h-1v-88q0-88 2-110l1-21v-13q-1-14 0-30v-15l30-1q30-2 33-2h3l103-5q103-5 113-6l10-1h3v-3q0-3 1-4v-1t1-1v-3l1-1 1-1v-2h1v-1h1l2-2q3-3 4-3l1-1 1-1h1l1-1 1-1h3l6-1q6-1 8-1h1v-4q1-4 1-4v-1q0-1 0-1h1l2-4q2-4 3-4 0 0 0-1h1q0-1 1-1l4-2q4-2 10-1t10 3q5 2 6 3z" fill="#fefefe" stroke="#fefefe"/>
  <path d="m549 132v2h-1t0 2q-1 1-2 1l-2 1t-2 0l-1 1v-1q0-1 1-1t0-1q0-2-4-2t-4 1l-1 1h-1t0-1-4 3q-3 4-4 4h-1v-1l1-1v-2l1-1 1-1v-2h1v-1h1l2-2q3-3 4-3h7q7-1 7 0 0 2 1 4z" fill="#f41e2f" stroke="#f41e2f"/>
  <path d="m575 147l1-1h15t-5 1q-4 0-4 3t-1 10l-1 7h-1v-5q-1-6-1-6t-1-1-3-1l-2 1v-3q2-3 2-4v-1h1z" fill="#f95929" stroke="#f95929"/>
  <path d="m556 125h2v3q0 2-4 5-3 3-4 2l-1-1v-1l3-4q3-3 4-4z" fill="#e56061" stroke="#e56061"/>
  <path d="m232 714l1-5v8l3 16q4 16 6 21t4 7q1 2 9 7 8 6 9 6h2l2 1 2 1h2l26 2q25 2 28 3 2 1 7 1h5l-2 1-3 1h-4q-4 0-21 2t-41 2-29-2q-4-4-7-10-3-7-3-28v-21l1-3 1-2v3l1-3q1-3 1-8z" fill="#cfcfcf" stroke="#cfcfcf"/>
  <path d="m720 731h10v1h2l1 1h1v2l2 1q1 0 0 1 0 1-2 2-1 1-1 1h-3q-2 0-17 2l-15 2h-18q-19 0-39 2l-20 1h-3q-4 0-4-1t-14-1l-15-1-1 1h-2v-1h1l3-1 2-1h-2l-1-1h-1v-2h-10v-1l68-3q69-3 78-4z" fill="#b1b0ad" stroke="#b1b0ad"/>
  <path d="m558 128v-1l1 1q1 1 1 4 0 4-1 5v1q-1 1-1 1 0-1-3 1t-6 2q-3 2-4 0l-1-1v-1h-3v-1h1v-1h2l2-1q1 0 2-1 0-2 0-2h1l1 1q1 1 4-2 4-3 4-5z" fill="#d01f1f" stroke="#d01f1f"/>
  <path d="m540 180l7 1q7 1 9 2h1v1q-1 0-3 3t-7 9q-6 6-13 6t-15 0l-8-1v-2h3l4-1 6-2q6-2 8-3t3-2q0-1 1-1t2-1h1v-2l1-2v-5z" fill="#d8a243" stroke="#d8a243"/>
  <path d="m572 115l1-1h1l3 8q3 8 4 9t1 1h1v1h1v3h-1q-1 0-4 0h-4q-1 0-3-4l-2-3-1-1q-1-1-1-5v-4l1-1v-1l1-1q1 0 2-1z" fill="#fd946e" stroke="#fd946e"/>
  <path d="m584 744h15q15 1 15 2t4 1h3l-2 1q-2 2-1 2 2 0 0 1l-1 1h-3l-2 1-1 1h-7q-8 0-40 1h-31v-1h2l2-1 2-1h2l-1-1-1-1 18-2q18-2 21-3h5q1-1 1-1z" fill="#acacac" stroke="#acacac"/>
  <path d="m430 765h5l17 1q17 0 24 2 6 0 8 1h1q0 1-3 1-4 0-41 3l-37 3q0-1 2-2 2 0-3-2h-5l-2-1-3-1h3l1-1 1-1 14-1q14-1 18-2z" fill="#cacaca" stroke="#cacaca"/>
  <path d="m564 739h20v2h1l1 1h2l-2 1q-2 1-2 1h-1q-1 0-1 1h-4q-3 1-21 3l-18 2 1 1 1 1h-2l-2 1-2 1h-2v1h-3q-4 1-8 1h-5q-1 0-41 4l-41 4v1h-5q-4 1-18 2l-14 1h-27q-27 0-57 1h-32l-2-1h-2q-2 0-3-1t-1-2q1-1-1-2l-2-1v-2h-2v-2l-1-1v-1h-1v-1h1l1-1 143-7q142-7 152-8z" fill="#8f8f8d" stroke="#8f8f8d"/>
  <path d="m596 106v-1l4 5q4 5 4 12 2 7 0 10 0 3-1 3v-1l-1-2t-2 0h-2v1h-1q0 1-1 2 0 1-2 2-3 1-8 2t-8-1l-2-2h3q3 0 4 0h1v-3h-1v-1h-1t-1-1-4-9l-3-8h-1l-1 1q-1 1-2 2v1h-1v1h-1v-3l1-2 1-1v-2h1v-1h1v-1h1v-1h8q8-2 12 0t4 0q-1-1-1-2z" fill="#fd4c2f" stroke="#fd4c2f"/>
  <path d="m252 685l1-5 3 38q2 37 6 37h5v1h1v1l1 1v2h2v2l2 1q2 1 1 2 0 1 1 2t3 1h2l2 1h1v1h-4l-1 1-1 1h-2l-3 1-2 1h-6q-1 0-9-6-8-5-9-7-2-2-4-7t-6-21l-3-16h1v2l1 1 1 1v-2h1v1h1v-4q0-3 2-18l2-14v-2l1 1 1 1v-3l1 1v2h2v3q1 3 1 7v4l1 1 1 1v-5q0-5 2-10z" fill="#9b9b99" stroke="#9b9b99"/>
  <path d="m517 756h1v1h-1v1h-2l3 1 4 1h4q3 0 6 1l4 1h7l1 1v1h-8l-4 1q-5 1-26 2l-21 2h-1q-2-1-8-1-7-2-24-2l-17-1v-1l41-4q40-4 41-4z" fill="#c6c6c6" stroke="#c6c6c6"/>
  <path d="m796 727h12v1q0 1-2 2-1 0-15 4t-36 5l-22 1t1-1q2-1 2-2 1-1 0-1l-2-1v-2h-1l-1-1h-2v-2l28-1q27-1 38-2z" fill="#d1d0c9" stroke="#d1d0c9"/>
 </g>
</svg>
